<?xml version="1.0" encoding="UTF-8" standalone="no"?>
<svg
   width="1000"
   height="1000"
   viewBox="0 0 1000.0001 1000"
   version="1.1"
   id="ministrat-svg-map"
   preserveAspectRatio="none"
   inkscape:version="1.4 (86a8ad7, 2024-10-11)"
   sodipodi:docname="ministrat.svg"
   xmlns:inkscape="http://www.inkscape.org/namespaces/inkscape"
   xmlns:sodipodi="http://sodipodi.sourceforge.net/DTD/sodipodi-0.dtd"
   xmlns="http://www.w3.org/2000/svg"
   xmlns:svg="http://www.w3.org/2000/svg"
   xmlns:rdf="http://www.w3.org/1999/02/22-rdf-syntax-ns#"
   xmlns:cc="http://creativecommons.org/ns#"
   xmlns:dc="http://purl.org/dc/elements/1.1/">
  <defs
     id="defs2" />
  <sodipodi:namedview
     id="base"
     pagecolor="#000000"
     bordercolor="#666666"
     borderopacity="1.0"
     inkscape:pageopacity="0"
     inkscape:pageshadow="2"
     inkscape:zoom="1.4"
     inkscape:cx="506.07143"
     inkscape:cy="650.35715"
     inkscape:document-units="mm"
     inkscape:current-layer="layer1"
     showgrid="false"
     units="px"
     inkscape:window-width="3840"
     inkscape:window-height="2054"
     inkscape:window-x="-11"
     inkscape:window-y="-11"
     inkscape:window-maximized="1"
     inkscape:pagecheckerboard="false"
     inkscape:showpageshadow="2"
     inkscape:deskcolor="#d1d1d1"
     showguides="false" />
  <metadata
     id="metadata5">
    <rdf:RDF>
      <cc:Work
         rdf:about="">
        <dc:format>image/svg+xml</dc:format>
        <dc:type
           rdf:resource="http://purl.org/dc/dcmitype/StillImage" />
      </cc:Work>
    </rdf:RDF>
  </metadata>
  <g
     inkscape:label="map_background"
     inkscape:groupmode="layer"
     id="layer1"
     transform="translate(0,-26.06665)">
    <g
       id="germany_provinces"
       style="opacity:1"
       transform="translate(-507.6165,-43.518834)">
      <path
         style="opacity:0.5;fill:none;stroke:#ffffff;stroke-width:2.64583;stroke-linecap:round;stroke-linejoin:round;stroke-miterlimit:4;stroke-dasharray:none;stroke-opacity:1"
         d="m 958.66426,441.428 -1.78737,2.02123 0.35079,1.05237 -0.60136,1.48669 0.0668,1.97111 -2.97337,2.20497 -2.07134,1.03567 -3.34087,6.58151 -2.10475,-1.1693 -1.60361,-0.0668 -3.70837,-1.67044 -1.83748,0.26727 -0.60135,1.23612 1.03567,1.06908 -2.27179,-0.13363 0.4009,1.36976 -0.60136,0.60135 1.30294,1.33635 2.17157,0.53454 2.53906,2.00452 1.63703,-0.66817 0.27493,1.76817 1.44103,1.96075 -2.29148,2.10249 v 0.73233 l 0.49609,1.08668 -2.29148,-0.35435 -1.32291,1.15755 -1.79539,-0.35435 -1.96075,1.41741 -2.38598,-0.82682 -1.1103,1.1103 -1.48828,0.0473 -0.25986,0.59059 3.26004,2.66945 -0.38782,1.05783 -2.97337,1.23612 -1.46999,-1.30293 -6.41447,0.30067 -1.90429,-1.36975 -0.13363,1.5368 -5.81312,-4.10927 -1.40316,0.0334 0.66817,1.63702 -2.89414,-1.7366 -0.94494,0.63783 -1.41741,-0.25986 -0.99218,1.41741 -0.0945,1.48829 1.13393,0.99218 -0.54335,1.11031 2.17337,1.6064 -1.27567,1.37016 1.37016,1.55915 0.28348,1.06306 0.8032,0.49609 0.0236,1.7009 -1.38197,1.99618 0.12993,1.4056 -2.05525,0.56697 -1.77176,1.58277 -1.67727,0.18899 -0.70871,2.57496 2.69308,0.16537 -1.03943,0.4016 0.66146,0.59059 -5.66965,0.54334 -1.72451,1.29929 -1.15755,-1.63002 -1.34654,0.44884 v 2.52772 l 3.96875,0.82682 -0.77958,1.63002 1.96075,1.11031 -0.92376,0.38863 -0.16704,1.57021 -1.87089,-0.83522 -0.93544,2.10475 0.13363,2.17157 2.23838,0.56794 1.10249,2.60588 -0.56795,0.46772 2.87315,1.26953 -3.30746,1.50339 0.70158,2.23839 1.67044,-0.20046 2.26567,2.80225 -1.53553,2.48046 1.39379,1.67727 -1.96075,-0.18898 -0.85045,-0.8032 -1.77176,1.60639 -2.1025,-0.51971 -1.58277,0.68508 0.0945,1.84263 -1.55915,-0.61421 0.11812,1.39379 -1.03944,0.28348 -0.28348,1.48828 -0.77957,0.18899 0.89769,4.016 1.2048,0.37797 -0.33073,1.6064 2.19699,2.52772 1.01581,0.0945 1.44103,2.12612 1.81901,-0.28348 0.63784,1.01581 -0.25797,1.11934 -0.8018,0.43431 -0.0668,1.13589 -3.00678,0.70159 0.36749,0.90203 -3.37428,1.46999 0.7684,0.93544 -1.46998,0.30068 0.0334,2.07134 2.53906,0.56794 2.63929,2.53906 -1.00226,0.30068 0.86862,3.14042 2.00453,2.27179 -0.20046,1.80407 1.16931,0.26727 -0.86863,0.90203 0.33409,0.66818 1.9377,0.4009 0.86863,0.96885 1.33635,-0.66817 -0.20046,-1.20271 2.77293,0.50113 2.7061,2.00452 -0.3675,0.96885 0.0334,1.77066 2.13816,-1.03567 1.03567,1.30294 2.53906,0.56795 1.57021,1.03567 2.27179,-1.00226 1.58691,-0.15034 2.62258,1.35305 -0.36749,1.05237 1.65373,2.40543 1.57021,0.33409 0.0167,1.1526 2.33861,0.23386 1.5702,0.86862 1.58692,-0.26727 1.26953,1.33635 1.10249,-0.35079 0.65146,0.86863 0.83522,-0.3842 3.72507,3.0736 4.27631,2.13815 -2.50565,0.56795 -3.75848,3.59143 -1.65373,-0.36749 -2.08804,0.4009 -0.43431,1.1359 -2.88986,1.31964 -1.50339,-0.0835 -1.80406,1.67044 -0.7684,2.38872 -1.15261,0.0167 -2.30519,2.99008 -0.0668,2.00452 -1.9043,0.26727 -0.53454,1.20271 -3.80859,2.37202 -0.83522,1.20271 -1.33634,2.57247 1.36975,1.20272 -0.10022,1.00226 -1.60362,0.7684 -0.30068,1.26953 -1.13589,0.30068 -0.16705,1.20271 -1.60361,1.5368 0.30067,1.43657 -1.73725,0.86863 0.10023,1.13589 1.03567,1.46998 0.20045,1.70385 0.96885,0.36749 0.90204,-0.56794 0.7684,0.60135 -0.10023,0.70158 h -1.33635 l 1.06908,1.40317 3.50791,0.30068 1.1359,-1.10249 2.40542,0.7684 0.70159,1.90429 1.5702,-0.46771 1.36976,1.10248 1.57021,-0.4009 0.3675,0.63476 1.00226,-0.60136 3.34087,-0.46773 0.63476,0.7684 1.80407,0.13364 0.53454,1.77066 4.00904,1.30294 1.60362,0.10023 -0.7684,-1.23613 h 2.47224 l 0.80181,0.46774 -0.0334,0.93544 0.80181,-0.0334 0.73499,-1.20271 0.60136,0.33408 -0.26727,-1.40317 -2.20498,-0.33409 -0.73499,0.56795 -1.33634,-0.66816 -0.43432,0.23386 -1.5368,-1.23613 0.60136,-1.30294 1.67043,-0.13364 0.63477,-1.00225 2.03793,-0.23386 0.90203,0.70157 0.80181,-0.90203 0.96885,0.73499 0.0668,1.20271 0.83522,0.13364 0.50113,-0.83522 2.03793,1.83749 -0.96885,0.40089 0.56795,0.60136 -0.80181,0.83522 -0.63477,-1.36975 -1.00226,0.0668 0.23386,1.00227 2.03793,0.50113 1.43658,1.03566 0.56794,-0.60136 -0.8018,-1.1693 1.13589,-0.26727 1.33635,1.60361 -0.56795,0.60136 1.10249,1.33635 2.43883,0.23386 1.67044,-0.56795 -0.0668,-0.46772 -2.07134,-1.5368 1.1359,0.0668 4.71062,2.67269 2.47224,2.00452 -0.30068,-2.57246 -3.8754,-3.07361 0.20045,-0.76839 1.00226,0.76839 3.67496,3.24066 0.70158,1.40316 3.0736,2.50565 1.20271,-0.26727 2.17157,1.40317 0.66817,-0.16704 0.83522,1.33634 -0.23387,1.10249 2.53907,1.00226 0.66817,0.93544 2.07134,0.56795 0.50113,0.63477 1.97111,-1.30294 1.46998,0.86862 -0.7684,1.03567 1.65374,1.30294 0.28397,-0.73499 1.50339,1.06908 1.38646,-0.20045 -0.26727,0.91874 0.85192,1.31964 1.25283,0.35079 1.45328,2.13816 -1.01897,0.88533 0.3675,1.58691 1.85418,-0.30068 0.61806,-0.48442 1.65373,0.83521 -2.99008,2.95667 1.85418,0.41761 3.29076,-0.10022 5.84651,-2.97338 -0.1002,-1.40316 -0.8519,-0.93545 1.0857,-1.30294 -0.2839,-1.52009 1.5201,0.50113 -0.8019,1.06908 3.2073,1.70384 1.3363,-1.20271 1.0023,0.7851 1.186,0.18375 2.8898,2.45554 h 3.3409 l 0.6181,0.71829 -1.3197,0.30067 v 0.56795 l 1.8208,0.53454 1.3217,2.17882 -1.0158,0.16537 0.3307,0.63784 4.7011,1.25203 0.3071,-0.49609 2.5986,-0.42521 1.2993,0.63783 -1.2757,1.01581 1.8899,0.40162 2.5514,-1.34655 2.1497,1.1103 0.071,-0.6142 -0.4961,-0.4961 0.3307,-0.73234 1.2757,-0.47247 2.575,1.27567 2.008,-0.0709 1.1575,-2.03164 2.6458,0.35436 4.8665,1.84265 0.5197,-0.68509 4.6538,0.3071 0.4961,0.61421 1.3938,0.0945 0.6142,0.59057 2.7404,1.0867 1.1811,-0.30713 -0.7323,-2.92931 2.0316,-0.21262 0.9922,-0.73232 0.1654,0.63784 -1.0631,0.63783 0.2599,0.77957 h 2.9529 l 0.4252,0.73234 2.7876,0.11811 -0.024,1.20481 1.3938,1.67727 2.386,0.33073 1.1103,-1.0867 3.1655,0.51972 2.0317,0.87408 -0.1654,0.35436 h 8.28 l -3.2128,-0.73234 -0.2126,-0.53152 1.4883,-0.61421 -0.6496,-0.5906 2.8702,-1.75996 -1.8072,-3.98055 -1.2993,-0.6969 -0.3554,-2.17583 -2.7729,-2.33861 0.1002,-1.33635 2.5057,-0.26727 1.9711,-1.70384 1.8709,0.60135 1.4032,-0.13363 2.0713,-1.10249 3.675,0.23386 0.9688,-0.23386 2.4722,0.96885 2.2384,-0.23386 3.3075,-1.77066 0.2004,-0.73499 0.6348,-0.56795 -0.3341,-1.03567 1.3364,-1.20271 -0.3341,-1.5368 1.7372,0.13364 1.0357,-1.00226 1.3364,1.46998 1.2027,-0.0334 3.4077,2.97337 1.0022,-1.70384 0.7016,0.36749 1.9377,-1.26952 0.5011,-2.47225 -0.8686,-1.00226 1.637,-1.36976 -0.902,-0.73499 0.5679,-0.66817 -1.5702,-1.50339 -0.4009,-1.67044 -2.1047,-0.20045 -2.1716,-3.67495 -2.1047,-0.40091 -0.5012,0.90203 -2.539,-2.00452 0.033,-2.27179 -3.1404,-3.34086 -1.4032,0.13363 -1.8709,-1.63703 0.6348,-0.80181 -1.7039,-1.23612 -1.8709,-3.97563 -1.0022,-0.20045 -0.9355,-1.30294 -2.2049,-0.86863 -0.2673,0.63477 -2.8063,-1.23612 -1.0023,-2.2718 -2.2718,-1.43657 -0.4009,-1.83748 0.5011,-0.20045 0.033,-1.23612 -1.8708,-0.7684 0.167,-2.43884 -1.1359,-0.60135 0.4009,-1.77066 -2.5056,-1.23612 -0.7684,-2.07134 2.4054,-0.40091 0.4677,-1.63702 1.2027,0.26727 1.637,-2.07134 -2.1381,-1.23612 0.9354,-0.90204 -4.009,-2.77292 -1.0023,-1.46998 -1.3363,-0.3675 v -0.83521 l -1.2361,-0.83522 -0.067,-1.1359 0.8686,-0.93544 -0.4343,-1.00226 -1.303,-0.93544 v -0.56795 l -1.0356,-0.16704 -0.568,-1.1359 h 1.47 l -0.2673,-1.57021 2.1716,0.60136 -0.033,1.46998 1.3697,0.50113 -0.6347,0.66817 1.1025,2.40543 1.6704,0.43431 0.9689,-2.93996 1.9711,-0.30068 1.7038,-1.43658 0.902,0.30068 0.8019,-1.20271 2.7061,-0.0334 2.1715,0.13364 0.9355,1.06908 2.539,-1.10249 0.8687,1.13589 0.5679,-1.00226 3.3743,2.63929 1.4366,-0.0668 1.1359,-1.23612 0.067,-0.90203 0.8352,-0.86863 0.3341,0.7684 1.637,0.43431 0.7016,-0.66817 1.2361,1.03567 0.6682,0.0668 1.7706,-2.77292 1.2361,0.13363 0.2339,0.96885 0.9355,-0.0334 0.067,-0.83521 h 1.2027 l 0.8352,-1.03567 0.8018,1.43657 0.9688,0.63476 1.2696,-0.4009 1.9043,-1.1359 -0.4677,-1.43657 3.107,0.73499 0.8686,-0.53454 1.3029,0.86863 1.7707,-0.23386 3.0402,1.23612 1.2027,-0.43431 0.3007,-1.43658 1.5702,0.23386 0.5011,-0.66817 1.6036,0.73499 6.4145,-0.4009 0.4009,-0.83522 1.1693,-0.13363 0.7016,0.70158 2.6727,-0.20046 0.4677,-0.8018 -2.5725,-1.30294 0.8353,-0.80181 h -1.3698 l -0.8018,-0.7684 1.5702,-1.46998 h 0.6014 l 0.4009,0.93544 0.7684,-0.3675 1.2027,1.26954 3.0402,0.46772 0.6681,0.80181 0.7684,-0.16705 0.7684,1.40317 -1.2361,1.20271 0.3675,0.70158 2.2718,-0.0668 v 0.63477 l -1.5368,1.40317 2.6059,1.03566 0.6013,0.86863 1.9043,0.30068 1.3698,-1.40317 0.5679,-1.03567 1.7039,-0.36749 1.3697,-2.33861 2.5057,-2.57247 -0.033,-1.43657 1.1025,-2.00452 0.8352,-0.53454 0.167,-1.63703 -1.5367,-1.73725 0.1002,-3.00678 0.6013,-0.66818 -0.8352,-1.36975 -2.9065,-0.73499 -3.1071,-1.97112 -0.5011,-0.96885 0.6682,-0.66817 1.3029,-0.93545 -0.1002,-2.27179 -2.1048,-1.9377 -0.033,-2.20498 -1.6704,-1.46998 2.0713,-1.5368 1.4366,-0.20045 1.0357,-1.06908 0.067,-2.13815 1.5034,-0.735 0.067,-1.36975 -1.637,-1.10249 0.067,-2.27179 1.2361,-1.70384 -0.4009,-1.10249 -2.3721,-1.00226 -0.8352,-0.80181 0.4009,-0.50113 -0.9354,-2.60588 0.5679,-1.33634 1.8041,-0.46773 1.0691,-1.26952 -0.6014,-0.96886 0.3675,-0.86862 0.6682,-0.60136 -1.0357,-1.50339 -3.5413,-2.23838 -1.5034,-2.6727 -3.3743,-2.67269 -1.0357,-1.46999 -2.1715,-0.80181 -0.3007,-0.66817 0.6014,-0.30068 0.7015,-0.46772 0.067,-2.77292 5.2118,-1.00226 1.4032,-0.70158 1.0356,-2.57247 -0.3675,-1.10249 0.9021,-1.00226 1.2695,-0.30068 0.9689,-1.1693 -0.9689,-0.3675 v -1.50339 l -0.6348,-1.1693 0.6014,-0.46772 -0.7016,-4.04246 -0.735,-0.56795 -0.2338,-1.80406 0.8686,-1.70385 -0.9355,-1.13589 0.4009,-1.83748 -1.4699,-0.3675 -0.2673,-0.53453 0.8686,-0.10023 0.9355,-0.7684 -0.6348,-0.7684 -0.7684,0.0334 -1.0357,0.60136 -3.4077,-1.00226 -4.2095,-2.97338 -0.6347,-1.46998 3.107,0.56794 1.9043,-0.53453 4.6104,1.20271 0.1336,-0.73499 -0.5011,-0.73499 0.9354,0.10022 -0.1336,-0.90203 -1.4366,-0.90204 -2.8731,-3.8754 -1.6371,-1.10249 -2.5056,-1.30294 -0.6014,-1.03567 -0.5679,-1.83748 -1.4366,-0.10023 -0.4343,1.23613 1.47,1.23612 -0.9689,1.9377 -0.4009,0.20046 0.2339,0.53454 0.8686,-0.26727 0.9021,-0.53454 0.6681,0.53454 -0.6681,0.90203 0.7684,0.46772 1.7372,-0.50113 -0.3675,-1.10249 1.0691,-0.20045 0.6682,1.00226 0.1336,1.5368 1.1693,-0.10022 0.2339,0.86862 -0.735,1.5368 -0.9355,-1.06908 -1.4031,0.3675 v -0.60136 l 0.6681,-0.4009 -0.2338,-0.7684 h -1.637 l -0.033,0.73499 0.6347,0.83522 -0.067,1.00226 -0.9688,0.86863 -1.9711,-0.10023 -0.033,0.63476 0.7349,0.53454 -0.7349,-0.60135 -0.4009,0.0668 -0.033,-0.70158 1.804,-0.93544 h 0.9355 l -0.033,-0.7684 -1.3698,-0.70158 -0.2004,-0.86863 -1.9377,-2.40543 0.9354,-0.26726 0.9354,-1.70385 -1.4365,-1.23612 -0.9355,-0.60136 0.3007,-0.83522 -0.8686,-0.23386 -1.5368,0.93545 -4.3766,-0.63477 0.4009,1.33635 -0.5345,0.20045 -1.1359,-2.33861 -1.3363,-0.63476 0.8686,-0.56795 -0.5346,-0.30068 -1.7038,0.0334 0.5011,-0.63476 -1.2361,-2.2718 1.47,-0.66817 -0.3341,1.1359 2.1382,0.96885 0.8352,-0.0668 -0.067,-0.83522 -0.9355,-0.30068 1.4032,-1.06908 2.4388,-0.83521 2.4389,0.4009 0.167,0.56795 h 2.0379 l -0.4343,0.66817 0.6682,0.50114 -1.0357,0.10022 v 0.36749 l 0.8353,0.93545 0.8018,-0.10023 -0.1003,-0.80181 0.9355,-0.73499 -1.2027,-2.43883 -1.9377,-0.50113 -0.8353,-1.33635 0.1003,-1.1359 3.7417,-1.33634 -0.033,-1.03567 -1.3697,-1.16931 -3.3409,-0.33408 -1.2695,-0.16705 -1.3698,-0.73499 -0.4677,-1.87088 1.7373,-0.23386 0.167,-0.70159 -1.5702,-0.7684 -3.1404,0.0334 -2.5725,1.9043 -0.6013,-0.30068 -0.1003,-0.56795 -1.6036,-0.10022 -0.5345,0.60135 0.1002,0.96886 -1.6704,2.27178 0.167,0.56795 0.6348,-0.0334 1.6704,-2.17156 0.1002,-0.96885 0.735,-0.53454 0.5012,-0.0334 0.8018,0.36749 -1.3364,0.3675 0.1002,0.50113 1.3364,-0.20045 1.9377,-1.83748 0.7684,0.36749 -1.6036,1.57021 0.2338,0.80181 1.6705,-0.30068 1.6704,-0.90203 0.3341,1.36975 1.2361,1.20272 1.1025,0.10023 0.3675,-0.26728 0.5345,0.16705 -0.8018,2.73951 -2.4722,-1.1693 0.4343,-1.03567 -0.4677,-0.60136 -1.2695,0.50113 -0.1003,-1.03567 0.7016,-0.63476 -1.0023,-0.33409 -0.9688,0.90203 -0.167,0.96886 -0.8019,-1.73726 -2.8731,0.0334 -0.1336,0.93545 1.8374,0.4009 0.8687,1.50339 -1.5702,0.30068 -0.5346,-0.53454 -0.902,0.10023 -0.6014,1.00226 1.6705,-0.0334 0.9688,0.80181 -0.4343,0.20045 0.2673,0.80181 h 0.4009 l -0.7016,0.0334 -0.5011,0.26727 -2.0046,-0.86863 -0.5011,0.23386 -0.6682,1.06908 0.4343,0.80181 0.6682,0.10023 2.7061,2.80632 -1.5034,-0.0668 -0.735,-1.1693 h -1.2027 l -0.2338,-0.73499 -0.7684,-0.30068 -0.1671,-2.13815 0.7016,-0.33409 -0.3675,-0.86863 -1.1693,-0.46772 -0.033,-1.73725 -1.4032,0.50113 -1.5702,-0.20045 -1.7706,1.36975 -1.6037,0.0668 -0.334,-1.06907 -3.1405,-0.66818 1.2028,-1.00226 -1.3364,-0.16704 -0.6682,0.66817 -1.6704,-0.16704 -0.8686,-0.40091 -0.568,0.33409 0.067,0.83522 -2.1381,-0.10023 0.1002,0.73499 -1.6036,0.0668 -0.1671,0.73499 0.9689,0.90204 -0.6348,0.13363 -1.9043,-1.50339 0.2339,-0.90203 2.0045,-0.73499 0.1336,-1.23613 3.9757,0.66818 0.8686,-0.63477 1.5702,-0.0334 1.8709,0.83522 5.2118,1.10249 0.6347,-0.30068 -0.3341,-0.83522 -6.9156,-1.40316 -3.0067,-1.23613 -0.9021,-1.03566 -2.6393,2.47224 -3.0068,2.07134 -1.5368,0.43431 -2.3052,0.26727 -2.2717,1.00226 -1.1359,2.00452 0.067,1.10249 0.7684,0.33409 -0.3007,0.46772 -1.0691,-0.60136 -0.5679,-1.26953 0.6347,-0.46772 -0.3675,-0.90203 -1.7706,-0.66818 -4.7441,0.20045 -3.9756,-1.67043 -2.0379,1.03567 -2.5391,-0.13364 -1.2361,1.06908 0.2338,0.60136 0.735,-0.13364 0.8687,-0.60135 1.5368,-0.0668 -0.1671,0.70158 -1.0357,-0.0668 -0.7015,0.90204 -1.9377,0.13363 -0.067,-0.66817 -3.0402,0.16704 -0.568,0.63477 2.0714,1.23612 1.637,-1.36976 -0.033,0.80181 -2.1382,2.17156 -1.0022,-0.7684 0.033,-0.56794 -1.47,-0.73499 -0.033,-0.63477 -1.9377,0.70158 -1.0023,-0.80181 0.7016,-0.56795 -1.6036,-2.23838 -1.9043,-0.10022 -0.6348,-0.60136 -5.2785,0.66818 -0.9689,-0.0668 v -1.23613 l -1.8113,-0.40238 -0.9213,-1.37016 v -0.94494 l 2.2679,-0.75596 1.4882,0.77958 2.1262,-1.13393 4.7247,-1.2048 0.3779,-4.77195 1.2993,-0.0473 0.6615,-1.1103 0.9449,0.33073 1.4174,-0.33073 2.3388,1.34654 0.4724,-0.44885 -1.2284,-1.96075 -0.2835,-1.74814 -1.1103,-0.16536 -3.0946,-1.93713 -1.8663,1.2048 -0.6851,1.65364 0.5906,0.42523 0.6615,-0.54334 1.0866,0.14174 0.2127,1.63002 -1.2048,0.73233 -1.1104,0.21261 -1.7717,-1.63002 -2.8821,0.54334 -1.5591,0.85044 -2.8585,-0.21261 -1.457,-1.0593 -0.3007,-1.00226 -4.6772,-2.83974 -2.5391,-2.07134 -1.2027,-0.13363 -0.5345,0.63476 -1.1693,-0.53454 -2.372,1.97112 -0.4009,-0.93545 1.3697,-0.53454 -0.3007,-1.60361 0.7016,-0.30068 -0.7684,-1.46998 -2.4722,-0.60136 -5.3788,0.10022 -0.735,-0.96885 3.5079,-0.10022 2.372,-1.03567 0.6014,-2.60588 0.7684,-1.80407 -1.1359,-1.03567 0.2004,-1.90429 -1.637,-1.46999 -0.9689,1.16931 -1.1024,-0.30068 -1.8375,-2.53906 -3.3409,-1.70384 -0.3675,-0.7684 0.6348,-0.16705 -0.4677,-0.66817 -1.47,0.23386 -0.9689,0.53454 -2.6393,0.16704 0.1003,-0.90203 -1.5034,-0.0334 -1.3364,0.73499 -1.9043,-0.7684 -0.067,-1.40317 -3.2573,-1.78736 -2.1215,-0.30068 -1.4867,-1.46998 -3.0401,-0.66818 -0.401,-0.85192 -2.7228,0.10023 -1.5034,-1.41987 -1.9209,0.83522 -0.3341,1.60361 1.7038,1.93771 0.3174,2.37202 0.8185,0.26726 -0.4176,1.26953 1.8876,1.43658 0.1837,1.33635 1.2194,0.7684 0.4177,2.07134 1.233,0.87153 0.2363,2.07886 -1.5592,-0.18898 -2.1734,1.08668 -3.3545,-0.94494 -3.2128,-0.51972 -0.4488,0.56696 1.1339,0.66146 -0.3307,0.47247 -1.4647,0.0709 -0.5906,-0.87407 -0.4725,-0.0709 -1.063,1.51191 2.6694,2.12612 0.756,-0.61421 3.4018,0.75595 0.1653,0.7087 -0.6614,1.86626 -1.1103,0.63784 0.024,1.70089 1.1103,0.51971 1.4883,0.0473 0.4252,1.74815 0.8032,0.99218 -0.8505,0.94494 -2.2678,-1.2048 -1.9844,0.16537 1.3466,1.63002 0.3779,2.19699 1.5592,1.39379 0.9213,-0.0945 0.095,0.99218 h -0.9449 l 0.4252,1.48828 -1.8663,-0.92131 -1.7481,0.0709 -3.2364,-1.41741 -1.4647,-1.22843 -0.2599,-1.22842 -2.1025,-0.0709 -1.9371,0.92132 -3.54349,4.7247 0.44884,2.03162 h -0.82682 l 0.21261,0.68509 1.22843,1.77176 -0.54334,0.54334 -0.68509,-1.13393 -2.03162,-0.75595 -1.53553,-1.06306 -0.35435,-1.15755 -0.66146,-0.68508 -1.67727,0.0473 -1.32292,1.08668 -0.42522,1.41741 0.75595,0.37798 1.41741,-0.16537 -0.0473,1.34654 -1.74814,1.98438 -1.29929,0.33073 -1.08668,-0.59059 -0.94494,-1.98438 -1.44104,-0.25985 -0.44884,-0.77957 0.0236,-1.08669 1.44104,0.44885 1.79538,-0.28348 0.14174,-0.51972 -1.27566,-3.68526 -1.13393,-0.35436 -0.18899,-1.39379 0.37798,-0.82682 -1.15756,-0.85044 -3.07106,-0.87407 -1.63002,-0.18899 -5.4334,-0.92132 -2.95294,0.0709 -0.87407,-0.87407 -4.67746,-1.46466 h -2.64583 l -4.22861,1.51191 1.2048,1.96075 -1.46466,0.42522 -1.03943,-1.55915 -0.75596,0.11812 -1.96075,4.58296 -0.66146,0.42522 0.35436,1.11031 6.16573,1.98437 -1.29929,1.25205 z"
         id="german-border"
         class="german-border"
         inkscape:connector-curvature="0"
         inkscape:label="#path4529"
         transform="matrix(3.0317309,-0.80249253,0.72233387,3.3681674,-2500.1079,-386.04565)" />
      <path
         style="opacity:0.5;fill:none;stroke:#ffffff;stroke-width:0.529167;stroke-linecap:round;stroke-linejoin:round;stroke-miterlimit:4;stroke-dasharray:none;stroke-opacity:1;paint-order:stroke fill markers"
         d="m 1070.1491,568.19727 -0.9689,-0.66817 0.1336,-1.33635 -1.2695,-1.60361 -3.2072,0.63476 -0.6348,-1.13589 -3.6081,-0.0668 -1.9711,-0.43431 -0.1337,-0.53454 -1.0357,-0.10023 -1.3029,0.66817 -0.3007,-0.96885 h -0.8686 l 0.033,-1.36976 -0.902,-0.0334 -0.9689,-0.83522 0.3341,-0.90204 1.2027,-0.63476 -0.8352,-0.90203 -2.0045,-0.53454 -1.2361,0.93544 -1.2696,-0.33409 -0.6681,0.20045 0.1935,4.19818 -1.2993,0.37798 -0.2835,1.96075 -1.5592,-1.2993 -0.4724,0.4961 -1.3466,-1.29929 1.0867,-0.63784 -0.9631,-1.79205 -1.8374,0.56794 -0.8353,-0.23386 v -0.36749 l -1.3697,0.0668 -0.8352,-1.67043 -3.4077,-1.00226 -3.1738,0.30068 -0.7016,0.70158 2.4722,2.57247 0.9689,0.0668 0.2004,1.03567 -1.2361,0.20045 -0.735,-0.96885 -0.6347,0.4009 -1.1359,-0.70158 -0.2673,0.86862 -0.568,0.73499 -1.7038,-1.36975 -1.5702,-0.43431 0.5679,-0.70159 -0.6013,-0.70158 0.6013,-0.63476 0.1671,-1.43658 h -0.8352 l -0.3007,-1.30294 -1.1359,0.46772 -1.47,-1.53679 0.067,-0.60136 -1.9377,-0.46772 0.6348,-0.7684 -1.1359,-1.10249 -0.2339,-1.43657 -1.3029,-0.46773 -1.9711,-2.53906 -2.2384,-0.23386 -0.2005,-1.10248 -2.6393,1.30294 0.7684,-2.13816 -0.3341,-1.1359 1.6705,0.10023 -0.033,-1.10249 -1.9377,-1.23612 -1.4032,-0.10022 -0.067,1.1693 -0.6013,0.3675 -1.0691,-1.10249 -0.735,0.20045 0.2004,-1.10249 1.4366,-0.46772 -0.1336,-0.7684 1.4031,-0.70158 -0.6681,-0.80181 1.3029,-0.26727 -0.2339,-0.7684 0.7016,-0.60136 0.9355,0.50114 1.6036,-1.26953 0.735,0.10022 v -0.96885 l -1.303,-1.00226 -0.902,0.53454 0.033,-0.73499 h -0.6013 l 0.167,-1.06908 3.0402,1.10249 -0.735,-1.9043 0.6682,-0.73499 2.539,0.86862 0.2673,0.83522 1.7038,0.0334 0.6014,-0.23386 0.3007,-0.60136 -1.8375,-1.30293 1.1025,-1.33635 -1.2695,-1.46999 0.6347,-0.0668 2.0714,1.63702 0.2004,-0.73499 -0.2338,-0.66817 0.7684,-0.60136 -0.7679,-0.94282 -3.2128,-1.55915 0.189,-0.44885 -0.8032,-0.8032 0.4252,-0.44884 -3.071,-1.74814 0.4252,-0.68509 -0.4489,-0.80319 0.567,-1.03944 2.1497,-0.0236 0.4253,-0.7087 1.63,-0.21261 0.5197,0.82682 0.5433,-0.42522 1.4411,0.82682 1.9135,-1.70089 1.1103,0.96856 1.9135,-0.21261 0.4488,-0.7087 1.7245,-0.14175 0.7324,-1.74814 2.3387,0.8032 0.7087,0.96857 0.5197,-0.0236 0.5197,0.77958 1.5592,0.18899 0.378,-0.68509 0.7795,0.25986 0.7088,0.99219 0.5669,-0.54334 -0.9213,-0.82682 1.441,-1.11031 0.8505,0.0945 -0.6615,-1.37017 0.5434,-0.73233 -1.0395,-2.008 -1.1575,-0.92131 0.874,-1.86626 2.2207,-1.25205 -0.7324,-1.60639 1.2048,-0.30711 -1.9607,-1.48828 -0.024,-0.85045 0.5669,-0.0709 0.8032,0.68508 1.2285,-0.37797 0.1417,-0.70871 h 1.7954 l 2.6458,1.15755 3.0711,0.23624 1.6536,0.51972 0.3071,-0.68509 -1.063,-0.85044 3.0474,-0.30711 1.1103,-1.06306 -1.3229,-0.37797 0.3307,-0.8032 2.1734,-0.33073 -1.6537,-2.36235 1.0159,-0.44885 -1.4411,-1.72452 2.2679,0.56697 0.5669,-0.66146 -3.3073,-3.87426 0.8977,-0.96856 1.3702,0.4016 -1.6064,-2.59859 2.0316,-1.58277 -2.0788,-0.14174 -1.4175,-4.016 -1.1339,-0.0236 0.095,-1.39378 -0.6614,-1.63002 0.7795,-1.25205 2.2915,0.0473 2.4657,1.01034 1.8041,-0.73499 0.167,-0.56795 2.8398,0.16705 0.2672,0.83521 2.038,-0.0668 1.4031,0.7684 0.1671,0.70159 1.5368,-0.13364 0.6681,0.7684 4.7775,-0.73499 0.9354,0.30068 -0.2004,-1.30294 0.8018,-0.80181 1.1025,0.43431 1.6036,-0.90203 -1.4366,-1.10249 -1.1359,0.23386 -0.8352,-1.40316 -3.7084,-0.0334 -1.4699,-2.00452 0.1002,-0.63476 -0.735,-1.00226 -1.7038,-0.13364 -0.1003,-0.96885 1.0023,-0.23386 -2.8063,-2.00452 -1.6705,-2.93997 -0.033,-1.43657 -1.4189,-0.32164 -0.3071,-0.66146 -3.0002,0.99219 -1.3938,-1.27567 -1.0394,-1.81901 -3.2128,-0.51972 0.7323,-0.77958 0.6379,-2.14973 1.9135,0.77957 0.5197,-1.13393 1.6773,0.73233 0.6142,-0.85044 0.9213,0.33073 0.6142,-2.14974 1.4883,0.8032 1.2757,-0.14175 0.5197,-1.48828 1.0867,-0.3071 -0.2599,-1.6064 -3.3782,-1.84263 0.2127,-0.73233 -1.3938,-0.44885 0.7559,-1.39379 0.024,-2.00799 2.4332,-0.4961"
         id="inner-german-border"
         class="inner-german-border"
         inkscape:connector-curvature="0"
         transform="matrix(3.0317309,-0.80249253,0.72233387,3.3681674,-2500.1079,-386.04565)" />
      <path
         style="opacity:0.5;fill:none;stroke:#f03c3c;stroke-width:0.264583;stroke-linecap:round;stroke-linejoin:round;stroke-miterlimit:4;stroke-dasharray:none;stroke-opacity:1"
         d="m 1016.6283,544.87801 2.7061,1.06908 0.4343,-0.96886 -0.8018,-1.40316 0.6014,-1.06908 0.8686,-0.13363 0.9021,-1.1359 0.8018,0.53454 1.637,-0.46772 1.7372,0.63476 1.7039,-1.63702 1.4031,0.13363 1.0357,1.00226 0.8018,-0.36749 0.2673,1.40316 -0.5011,0.30068 1.069,2.22168 1.1025,0.21715 0.7016,0.85193 1.0357,-0.16705 0.6682,0.86863 0.4844,-0.95215 0.9354,0.85192 -0.8508,1.95454 0.8269,0.28348 0.1181,0.92132 1.0867,0.92131 -0.071,1.13393 0.7323,0.75595 1.3702,-1.27567 0.8268,2.26786 h 0.6851 l 0.6378,0.96856 1.7481,0.28349 0.8269,1.03943 0.4961,-0.51972 1.8426,-0.16536 -0.756,1.2048 0.4961,0.56696 0.6851,-0.21261 0.6615,0.51972 0.8032,-0.44885 0.4016,0.21261"
         id="fulda-border"
         class="east-german-province"
         inkscape:connector-curvature="0"
         inkscape:label="#path4533"
         transform="matrix(3.0317309,-0.80249253,0.72233387,3.3681674,-2500.1079,-386.04565)" />
      <path
         style="opacity:0.5;fill:none;stroke:#f03c3c;stroke-width:0.264583px;stroke-linecap:round;stroke-linejoin:round;stroke-opacity:1"
         d="m 1040.9469,553.62809 2.2413,0.60435 0.8353,-0.15034 0.8519,-1.33634 -0.7016,-0.85193 0.6348,-1.46998 -1.1025,0.0501 -0.1671,-0.7851 5.4456,-0.16704 -0.05,-1.35305 1.0858,-0.51784 -1.0691,-0.7684 -0.2338,-1.06908 0.902,0.15034 -0.3174,-0.7851 -1.0022,-0.28398 -0.4677,-1.50339 0.4009,-0.50113 1.0857,0.40091 -0.2689,-1.35665 1.4882,-0.4016 0.024,-0.94494 1.4883,-0.0945 -0.5197,-1.79539 0.4725,-0.66146 1.5828,0.16537 0.7795,0.59059 4.2759,0.99218 0.2362,0.59059 1.4647,-0.0945 -0.7087,-0.94494 0.024,-0.54334 0.7796,-0.28349 0.2834,-0.51971 -0.9685,-1.74814 -1.2993,0.0236 -0.6142,-1.01581 0.7323,-0.23623 0.4725,0.47247 2.3151,-1.53553 -1.2285,-2.05525 -0.685,-0.25986 0.2598,-0.96856 -1.2756,-0.21261 -0.6143,-1.11031 h -2.1261 l -0.4488,-0.77957 -2.2679,-0.25986 -2.1497,-1.48828 -1.9135,-0.0472 -1.1339,-0.54334 0.7323,-1.77176 -0.756,-0.47247 -0.2362,-1.13393 0.7559,-0.37798 -1.5827,-0.68508 -0.1418,-1.13393 1.4647,-0.8032 -1.1339,-0.0709 -0.6379,-0.92132 -2.5041,-1.1103 -1.441,-0.16537"
         id="upper-thuringian-border"
         class="east-german-province"
         inkscape:connector-curvature="0"
         inkscape:label="#path4535"
         transform="matrix(3.0317309,-0.80249253,0.72233387,3.3681674,-2500.1079,-386.04565)" />
      <path
         style="opacity:0.5;fill:none;stroke:#f03c3c;stroke-width:0.264583px;stroke-linecap:round;stroke-linejoin:round;stroke-opacity:1"
         d="m 1060.3418,540.28078 1.6536,0.35438 1.2521,-0.47247 0.6851,1.13393 1.3938,-0.11812 1.0158,0.56696 -0.024,1.25205 1.0158,0.0236 0.5669,1.32291 0.8741,-0.51971 1.3229,0.94494 1.2285,-0.18899 0.874,1.18118 1.0158,-0.0709 0.7745,0.72421 -0.6014,0.66818 1.0691,0.36749 0.3675,1.00226 2.4054,0.20046 1.637,1.00226 0.6014,-0.50113 1.1359,1.5702 0.5011,0.60136 -1.3029,1.33635 0.2004,0.43431 0.8353,0.30068 -0.1003,1.33635 -0.6347,0.30068 1.1359,0.96885 -0.8018,0.86862 -0.7684,-0.56794 -0.3675,0.86862 1.3029,0.66818 -0.8686,0.36749 0.3006,0.66817 1.5703,0.53454 v 0.60136 l -2.3052,0.7684 -1.6705,-0.96885 -1.1025,0.33409 -1.5702,0.8018 1.0691,0.73499 -1.3363,0.13364 -0.1337,-0.7684 -0.6347,-0.0334 -0.6682,0.86863 -0.8352,0.0668 -0.4343,-0.7684 0.902,-0.93545 -0.7016,-1.5368 -0.735,0.20045 0.033,0.63477 -1.7372,-0.16704 -0.5346,0.93544 -1.7372,0.23386 0.4677,1.10249 1.4032,0.66817 0.4677,1.06908 -2.2217,0.31738"
         id="erfurt-border"
         class="east-german-province"
         inkscape:connector-curvature="0"
         inkscape:label="#path4537"
         transform="matrix(3.0317309,-0.80249253,0.72233387,3.3681674,-2500.1079,-386.04565)" />
      <path
         style="opacity:0.5;fill:none;stroke:#f03c3c;stroke-width:0.264583px;stroke-linecap:round;stroke-linejoin:round;stroke-opacity:1"
         d="m 1080.7396,554.73352 0.698,0.64271 0.4725,-0.49609 1.1575,0.63783 1.0867,-1.01581 1.0158,0.35435 0.7796,0.68508 1.5355,-1.46465 1.9608,-0.14174 2.9529,0.94494 0.4725,-0.37798 -0.6851,-0.96856 0.071,-1.15755 1.63,0.35435 1.3702,-0.70871 0.6851,0.68508 0.2126,-0.54334 -0.756,-0.61421 0.6615,-0.35435 -0.4016,-0.8032 1.441,-1.34654 0.9449,0.99219 3.0475,0.47247 0.2835,-1.06306 -1.1103,-0.77958 2.3387,-1.98437 1.9135,0.42522 1.441,1.39379 1.3073,-0.617 0.6682,0.53454 0.3341,-0.23386 2.6393,0.36749 -0.1337,1.67044 1.2696,0.93544 -0.4343,2.50565 -0.4343,0.3675 -0.067,0.7684 -0.6348,0.86863 0.4677,0.20045 0.6348,-0.53454 3.4411,-0.13364 1.3697,0.90204 0.3341,0.7684 -0.6347,0.43431 0.067,0.53454 1.2027,0.16704 -1.7707,0.83522 0.8352,1.06908 -0.167,0.70158 0.8686,0.30068 0.6682,1.23612 -0.735,0.73499 1.6704,0.83522 0.1671,0.70158 -0.7016,0.63477 0.7684,0.60135"
         id="erzgebirge-border"
         class="east-german-province"
         inkscape:connector-curvature="0"
         inkscape:label="#path4539"
         transform="matrix(3.0317309,-0.80249253,0.72233387,3.3681674,-2500.1079,-386.04565)" />
      <path
         style="opacity:0.5;fill:none;stroke:#f03c3c;stroke-width:0.264583px;stroke-linecap:round;stroke-linejoin:round;stroke-opacity:1"
         d="m 1110.9077,548.55296 0.7015,-1.30293 -0.167,-1.30294 0.735,-1.5034 -0.9021,-0.90203 1.0357,-0.56795 0.9689,0.73499 1.7706,0.0334 0.9021,-1.10249 2.3386,0.3675 0.167,1.10249 1.1359,-0.26727 0.3007,0.93544 1.0691,0.0668 0.7684,1.73725 1.0022,-0.83522 0.6014,1.10249 3.1404,0.40091 1.8041,0.93544 2.1047,-0.26727 1.1359,0.50113 2.2384,-0.43431 0.3007,0.96885 0.6682,0.43431 0.6347,-1.00226 1.9377,-1.03567 -0.5345,-1.10249 1.4366,0.43432 1.3363,-1.80407 1.1025,-0.13364 4.2095,1.73726 0.6013,1.13589 1.303,-1.26953 2.1381,0.30068 0.8687,-0.53454 1.637,0.96885 0.8018,-0.53454 0.902,-0.0334 0.4343,1.03566 0.568,0.23386"
         id="lusatian-border"
         class="east-german-province"
         inkscape:connector-curvature="0"
         inkscape:label="#path4541"
         transform="matrix(3.0317309,-0.80249253,0.72233387,3.3681674,-2500.1079,-386.04565)" />
      <path
         style="opacity:0.5;fill:none;stroke:#f03c3c;stroke-width:0.264583px;stroke-linecap:round;stroke-linejoin:round;stroke-opacity:1"
         d="m 1112.3108,542.33896 -0.8018,-0.53454 0.9354,-0.7684 -0.4009,-0.86863 1.0023,-0.56794 -0.2339,-1.5368 -1.5034,-0.735 0.7684,-1.00226 -1.9711,-0.53453 -0.8352,-1.5368 -0.6348,0.0668 -0.5679,-1.1693 -0.8686,-0.20046 -0.2673,0.60136 -0.8686,0.20045 -0.3675,-0.63476 -1.4366,-0.23386 -0.5846,-1.28624 1.1693,-2.33861 -0.2339,-0.56794 -1.2862,-0.3675 -0.117,-0.35079 0.8854,-1.20271 -0.3341,-1.1359 0.4677,-0.83522 0.4343,0.3675 0.2005,-0.63476 h 0.6013 l -0.067,-0.86863 1.4613,0.55333 0.4488,-0.25986 1.0867,0.37798 0.378,1.29929 2.008,0.44885 -0.4725,0.61421 0.6851,0.61421 1.8663,-0.25986 0.8032,0.68508 0.3543,-0.37797 1.8426,0.49609 -0.3543,0.68508 0.2599,1.22843 1.6772,0.87407 0.7796,-0.70871 1.0158,0.49609 0.5197,-0.35435 0.7087,-1.96075 0.9686,-0.4016 0.4725,-0.54334 -0.071,-0.85045 1.3701,0.14174 0.8505,0.77958 1.819,-0.66146 2.2915,-0.14174 0.8168,-1.32066 1.6371,-0.91874 4.2763,0.15034 0.782,0.52991 1.7009,-0.0945 0.756,-0.42522 1.2048,1.37017 1.3465,0.47247 1.2048,0.92131 0.5906,0.0945 0.1181,1.29929 1.7954,0.16536 0.6379,-0.96856 0.2362,1.81901 1.5591,0.4016 1.0159,-0.56696 1.4882,-0.0473 0.7796,0.63783 0.189,0.92132 0.6378,0.70871 0.6142,0.21261 0.1654,-0.8977 1.1576,-0.21261 0.1653,1.63002 1.5828,0.47248 0.8504,-0.8032 1.8191,0.61421"
         id="sorbian-border"
         class="east-german-province"
         inkscape:connector-curvature="0"
         inkscape:label="#path4543"
         transform="matrix(3.0317309,-0.80249253,0.72233387,3.3681674,-2500.1079,-386.04565)" />
      <path
         style="opacity:0.5;fill:none;stroke:#f03c3c;stroke-width:0.264583;stroke-linecap:round;stroke-linejoin:round;stroke-miterlimit:4;stroke-dasharray:none;stroke-opacity:1"
         d="m 1080.606,550.72447 0.8686,-1.03561 1.5034,-0.60136 0.1336,-0.7684 -0.8686,-0.56794 0.2673,-0.63477 1.0356,-0.66817 -1.9377,-1.1526 0.6014,-0.41761 -1.2027,-0.80181 1.0356,-1.10249 -1.353,-0.28397 1.1526,-0.83522 0.033,-1.41987 -0.9689,-0.7851 0.5179,-0.51784 -0.4009,-0.93544 1.5702,-0.0501 -0.4343,-2.38872 0.8018,-0.60136 -1.0858,-1.31965 2.3553,-0.70158 -0.4677,-1.25282 1.7706,-0.90204 1.0691,0.65147 1.9377,-0.61806 2.4054,1.11919 0.7517,-1.1693 0.8353,0.85192 4.3765,-0.18375 -0.451,0.55125 1.7205,-0.0835 0.9188,-1.05237 2.2049,1.1526 1.0858,-0.56795 1.2862,-0.0334 v 0 0"
         id="leipzig-border"
         class="east-german-province"
         inkscape:connector-curvature="0"
         inkscape:label="#path4545"
         transform="matrix(3.0317309,-0.80249253,0.72233387,3.3681674,-2500.1079,-386.04565)" />
      <path
         style="opacity:0.5;fill:none;stroke:#f03c3c;stroke-width:0.264583px;stroke-linecap:round;stroke-linejoin:round;stroke-opacity:1"
         d="m 1048.0102,519.84639 v 0 0 0 l -0.2362,-0.56696 0.1654,-0.56697 0.5433,-0.18898 0.3307,-0.70871 0.8032,0.11812 0.047,-0.25986 -0.5905,-0.8032 0.7087,-0.77958 1.4174,0.25986 0.9449,-0.68508 4.4176,-0.68508 0.2362,-0.42522 2.4096,0.37797 0.4961,0.63784 1.0867,-0.99219 1.1339,0.42522 1.0159,1.34654 0.024,2.17337 0.7087,0.0709 0.6142,0.54335 0.3071,1.5119 1.2756,0.82682 0.1418,0.8032 0.4252,-0.0236 1.2993,-0.18899 0.6851,0.54334 -0.378,0.95675 2.4332,0.92132 0.9924,0.86214 0.9856,-0.41761 0.8185,0.56795 0.735,-0.33409 0.1838,0.43431 0.9688,0.0835 -0.033,-0.86863 -0.6583,-0.62289 0.7796,-2.03163 0.5433,-0.35435 0.189,-0.75595 0.9922,-0.0472 -0.4488,-1.1103 0.071,-0.56697 2.1497,-0.28348 0.6378,-0.61421 0.4219,-1.0464 0.4343,-0.50114 1.1359,-0.0334 -0.1003,-1.1359 0.5346,-0.30068 0.7016,1.20272 h 1.1359 l 0.4009,-0.70159 -0.8018,-0.16704 0.6347,-0.53454 -0.3675,-0.7684 1.2027,-0.46772 1.0691,0.43431 2.3052,0.46772 2.0045,-0.60135 1.2028,0.73499 0.3674,1.40317 1.303,0.63476 0.7016,0.93544 1.9377,0.40091 1.3697,1.67043 2.0046,0.73499 0.167,-0.60135 0.6014,0.13363 0.8686,-0.56795 2.8731,1.93771 0.033,0.66817 2.0045,0.21716 -0.05,0.70158"
         id="anhalt-border"
         class="east-german-province"
         inkscape:connector-curvature="0"
         inkscape:label="#path4547"
         transform="matrix(3.0317309,-0.80249253,0.72233387,3.3681674,-2500.1079,-386.04565)" />
      <path
         style="opacity:0.5;fill:none;stroke:#f03c3c;stroke-width:0.264583px;stroke-linecap:round;stroke-linejoin:round;stroke-opacity:1"
         d="m 1078.9571,480.27709 v 0 l -0.4252,0.96856 1.3702,0.18899 0.4488,1.53553 1.2757,-0.25986 1.2284,1.44103 1.3938,-0.0236 0.189,0.63784 -1.2048,0.73233 0.7796,0.7087 0.874,-0.11811 0.024,0.82682 1.3229,0.11812 1.0395,1.03943 1.3701,-0.47247 2.8349,1.13393 -0.047,0.96856 2.2206,-0.25986 0.7559,0.8977 0.2126,1.77176 -1.4435,0.21367 -0.4844,0.82687 0.4426,0.70993 -0.8602,0.30068 0.1002,0.7684 0.7517,1.17766 -0.4928,1.49504 -1.8709,-0.7684 0.1671,1.97111 -1.1025,0.43431 -0.2673,0.86863 0.3675,1.00226 1.7373,0.36749 0.167,-0.73499 0.5345,0.0668 0.6014,1.26953 1.1359,0.30068 -0.1336,1.03567 -1.4366,0.96885 0.3341,1.33635 -0.735,0.46772 0.5345,0.73499 -2.3386,2.47224 1.0691,1.20272 -1.2361,0.20045 -0.2339,0.53454 -0.7684,0.4009 0.9354,2.53906 v 0 0 0"
         id="sachsen-anhalt-border"
         class="east-german-province"
         inkscape:connector-curvature="0"
         sodipodi:nodetypes="cccccccccccccccccccccccccccccccccccccccccccccccccccc"
         inkscape:label="#path4549"
         transform="matrix(3.0317309,-0.80249253,0.72233387,3.3681674,-2500.1079,-386.04565)" />
      <path
         style="opacity:0.5;fill:none;stroke:#ffffff;stroke-width:2.64583;stroke-linecap:round;stroke-linejoin:round;stroke-miterlimit:4;stroke-dasharray:none;stroke-opacity:1"
         d="m 1127.0441,513.08964 -0.9581,0.23674 -0.1653,-0.99219 -1.323,0.18899 -0.047,1.25205 -0.8976,-0.23624 -0.756,-1.48828 -1.3702,-0.18899 -0.6142,-0.66146 -1.063,0.33073 -0.4016,-0.63783 -1.6537,-0.14174 -0.7796,0.61421 -1.8426,-1.41741 1.1812,-0.33073 -0.094,-0.59059 0.9213,-0.99219 1.1576,-0.18899 -0.3308,-0.56696 -1.3229,-0.0709 0.1654,-0.82682 1.2048,-0.44885 0.071,-0.49609 -0.756,-0.70871 1.3229,-0.0709 1.4411,0.87407 -0.2599,-0.82682 0.8977,-0.59059 0.9213,0.61421 0.567,-1.03943 0.6142,0.0945 0.024,1.08668 1.1404,0.45296 -0.3842,1.33635 0.2506,0.43431 -0.017,1.00226 -0.7016,0.40091 0.1337,0.25056 2.9399,1.03567 0.6348,1.10248 0.8352,0.33409 z"
         id="west-berlin-border"
         class="inner-german-border"
         inkscape:connector-curvature="0"
         inkscape:label="#path4553"
         transform="matrix(3.0317309,-0.80249253,0.72233387,3.3681674,-2500.1079,-386.04565)" />
      <path
         style="opacity:0.5;fill:none;stroke:#f03c3c;stroke-width:0.529167;stroke-linecap:round;stroke-linejoin:round;stroke-opacity:1"
         d="m 1128.3971,513.90815 h 0.7684 l 0.3675,0.91874 0.8352,-0.23386 0.284,1.75396 1.186,-1.35306 1.0858,0.10023 0.5679,-0.43431 -0.017,-0.66818 0.6515,-0.41761 -2.0212,-1.5702 -1.9878,-0.18375 1.8541,-1.60362 -0.902,-0.23386 -0.1838,-0.7684 h -0.6681 l -0.8018,-1.62032 -1.186,-0.26727 -0.2506,-0.61806 1.019,-0.86863 -1.1693,-1.50339 -1.47,1.08578 -0.3842,-0.55124 -0.6095,-0.10824"
         id="east-berlin-border"
         class="east-german-province"
         inkscape:connector-curvature="0"
         inkscape:label="#path4555"
         transform="matrix(3.0317309,-0.80249253,0.72233387,3.3681674,-2500.1079,-386.04565)" />
      <path
         style="opacity:0.5;fill:none;stroke:#f03c3c;stroke-width:0.264583px;stroke-linecap:round;stroke-linejoin:round;stroke-opacity:1"
         d="m 1155.7755,489.65342 -0.8352,-0.0334 -0.2673,0.56795 -1.3029,0.10023 v 0.56795 h -1.1693 l -1.1693,-0.50114 -0.9689,0.63477 -0.5345,1.30294 -0.6348,-0.70158 -1.1359,0.30068 -0.4677,-0.56795 -1.3029,0.56795 -0.067,0.53453 -1.1359,-0.20045 0.167,1.00226 -2.2384,0.70158 -1.3697,-0.0668 0.4343,1.33635 -1.637,-0.80181 -0.9689,0.53454 -3.0068,-1.16931 -0.9688,0.70159 0.9354,0.7684 -0.4677,0.26727 -2.1716,-0.63477 -2.6393,-0.0668 -0.1002,0.43432 -2.1381,-0.0668 -1.0691,0.56795 0.4677,1.00226 1.2027,-0.40091 0.4677,0.93545 -0.6347,0.26727 0.1336,0.43431 0.8352,0.23386 -0.9354,0.23386 0.2673,0.60136 1.069,1.06907 -1.5034,0.26727 -1.5368,-0.56794 -0.067,0.7684 -1.0022,0.56794 v 0.735 l 0.6013,0.33408 -1.1693,1.26953 0.5346,0.43432 -0.3007,0.95214"
         id="neumark-border"
         class="east-german-province"
         inkscape:connector-curvature="0"
         inkscape:label="#path4557"
         transform="matrix(3.0317309,-0.80249253,0.72233387,3.3681674,-2500.1079,-386.04565)" />
      <path
         style="opacity:0.5;fill:none;stroke:#f03c3c;stroke-width:0.264583px;stroke-linecap:round;stroke-linejoin:round;stroke-opacity:1"
         d="m 1132.924,515.09416 0.06,0.83081 0.6851,0.47247 -0.6851,1.06305 1.7245,0.47247 0.3071,-0.23623 1.0394,0.73233 -0.7087,0.54334 0.945,0.18899 0.024,0.49609 -1.2048,0.73233 0.9213,0.85044 -1.0394,1.11031 1.6064,0.16536 0.094,0.42523 -1.2521,-0.0236 -0.5459,1.43085 v 0 0 0 0 0"
         id="lower-brandenburgian-border"
         class="east-german-province"
         inkscape:connector-curvature="0"
         inkscape:label="#path4559"
         transform="matrix(3.0317309,-0.80249253,0.72233387,3.3681674,-2500.1079,-386.04565)" />
      <path
         style="opacity:0.5;fill:none;stroke:#f03c3c;stroke-width:0.264583px;stroke-linecap:butt;stroke-linejoin:miter;stroke-opacity:1"
         d="m 1091.4776,488.73433 1.8237,-0.18337 0.7684,-0.50113 2.0045,0.83521 -0.033,-1.40316 0.6014,-0.30068 0.3674,0.50113 0.7684,-0.90204 2.5391,-0.0334 0.2673,-1.46999 -1.5034,0.7684 -2.1382,-2.03793 v -1.26952 l -0.9354,-0.53455 0.2673,-0.4009 0.902,-0.43431 0.2004,-0.63477 -1.0356,-1.20271 -0.7684,-0.20045 0.1002,-0.7684 -2.0379,-1.5368 -0.033,-1.1359 0.5679,-0.0334 0.3007,-0.46772 0.7016,-0.10022 0.5011,-1.30294 0.5345,0.73499 1.2696,-0.46772 1.0022,1.50339 0.7684,-0.16705 0.5346,0.66818 h 0.9688 l 1.4032,1.10249 -0.3675,0.53453 0.8352,0.3675 0.5345,1.30294 1.9712,-0.40091 2.4722,1.46999 0.4343,-0.3675 1.0357,0.43431 0.2004,0.83522 2.1048,0.66817 -0.8352,0.76841 1.4031,0.73499 1.6037,-0.53454 1.069,1.26953 0.4009,-0.33409 2.3386,0.40091 -0.5679,0.63476 1.0023,0.83522 1.1382,-0.90583 0.1654,-1.03944 1.5355,-0.51971 v -0.56697 l 1.7481,-0.75595 0.9686,0.47247 0.2362,2.59859 0.6379,0.44884 0.7323,-0.54334 1.441,2.17337 -0.874,1.08668 2.9529,3.73251 -0.378,0.94494 1.6064,0.28349 1.1523,1.41026 v 0 0 0 0"
         id="upper-brandenburgian-border"
         class="east-german-province"
         inkscape:connector-curvature="0"
         inkscape:label="#path4561"
         transform="matrix(3.0317309,-0.80249253,0.72233387,3.3681674,-2500.1079,-386.04565)" />
      <path
         style="opacity:0.5;fill:none;stroke:#f03c3c;stroke-width:0.264583px;stroke-linecap:round;stroke-linejoin:round;stroke-opacity:1"
         d="m 1061.7008,450.4505 6.0428,0.34864 1.0691,-0.23386 0.5011,-0.66818 1.0023,0.30068 v 0.50113 l 1.47,1.10249 0.7684,-0.10023 0.6013,0.60136 0.7016,0.10023 0.2673,0.50113 2.2718,1.90429 2.0379,0.66818 1.4366,-0.43432 1.4031,0.70159 -0.6347,0.66817 3.107,1.03567 1.4366,0.30068 0.1336,-0.60136 0.902,0.3675 0.5012,-0.53454 1.6704,1.40316 0.8352,-0.66817 0.033,-0.7684 0.7684,-1.50339 1.0691,-0.70159 0.8686,-1.83747 1.0023,-0.10023 0.7684,-0.63476 0.6013,0.86862 3.6416,0.63477 0.3675,0.46772 0.067,-1.23612 4.0424,0.4009 0.5346,0.60136 1.2695,0.10022 0.033,-0.50113 0.8352,-0.56794 0.2005,-0.7684 0.9354,-0.80181 1.0357,-0.10023 0.2672,0.36749 1.3364,-0.0334 v 2.60588 l 1.5368,0.60136 0.1002,-0.63477 1.3364,-0.7851 0.7183,0.95215 0.7851,-0.11693 2.0379,2.28849 1.2194,-0.0334 1.5702,1.5201 1.186,1.20271 3.3075,-0.43431 3.6415,-0.0501 0.7684,0.7684 1.47,-0.10022 4.3431,2.67268 0.1671,0.735 -0.6682,1.1693 -1.7038,0.43431 0.2004,1.1359 1.637,1.43657 1.2028,-0.53454 2.539,0.23386 0.9355,1.30294 1.4699,-0.33408 1.0357,1.20271 3.3075,1.06908"
         id="pomeranian-border"
         class="east-german-province"
         inkscape:connector-curvature="0"
         sodipodi:nodetypes="ccccccccccccccccccccccccccccccccccccccccccccccccccccccccccccccccccccc"
         inkscape:label="#path4563"
         transform="matrix(3.0317309,-0.80249253,0.72233387,3.3681674,-2500.1079,-386.04565)" />
      <path
         style="opacity:0.5;fill:none;stroke:#f03c3c;stroke-width:0.264583px;stroke-linecap:round;stroke-linejoin:round;stroke-opacity:1"
         d="m 1100.7514,476.25657 -0.8352,-1.60363 -0.3675,0.16705 -0.568,-1.20272 1.3364,0.16704 v -1.40316 l 1.7707,-1.10249 -1.2028,-0.56794 -0.5345,-1.20272 0.8352,-1.23612 0.9021,-0.33409 0.5011,0.50113 0.1336,-0.26727 -0.8352,-2.10474 0.4677,-1.43658 -0.3341,-0.63476 0.1671,-1.10249 -0.1671,-0.56795 -0.2338,-3.70836 h 0.6347 l 0.5346,-0.73499 -0.1671,-0.80181 0.2339,-1.20271 0.4677,-0.3675 0.284,-1.5535"
         id="inner-mecklenburg-border"
         class="east-german-province"
         inkscape:connector-curvature="0"
         inkscape:label="#path4567"
         transform="matrix(3.0317309,-0.80249253,0.72233387,3.3681674,-2500.1079,-386.04565)" />
      <path
         style="opacity:0.5;fill:none;stroke:#72b28c;stroke-width:0.265;stroke-linecap:round;stroke-linejoin:round;stroke-miterlimit:4;stroke-dasharray:none;stroke-opacity:1"
         d="m 998.61356,444.015 1.2048,0.14174 0.96854,-0.73233 -0.3071,-1.84263 1.1103,-0.92132 -1.1339,-0.51972 -0.87407,-0.0473"
         id="bremerhaven-border"
         class="west-german-province"
         inkscape:connector-curvature="0"
         inkscape:label="#path4578"
         transform="matrix(3.0317309,-0.80249253,0.72233387,3.3681674,-2500.1079,-386.04565)" />
      <path
         style="opacity:0.5;fill:none;stroke:#72b28c;stroke-width:0.264583px;stroke-linecap:round;stroke-linejoin:round;stroke-opacity:1"
         d="m 993.34248,450.69891 0.73499,1.63703 2.83974,1.87088 0.30067,1.9043 1.10249,1.26953 -0.43431,0.96885 0.80181,0.83522 1.13589,-0.70158 0.90204,1.5368 1.0357,0.10022 1.9377,1.06908 1.069,-0.56795 0.9021,-0.0334 -0.4009,-1.26953 0.8352,-0.26726 -0.568,-1.03568 0.6682,-0.16704 -0.6013,-0.90203 -2.4055,0.13363 -0.8352,-1.50339 -1.637,-0.3675 -1.43658,-1.13589 -1.87088,-0.30068 -1.97112,-1.1693 -1.13589,-1.16931 z"
         id="bremen-border"
         class="west-german-province"
         inkscape:connector-curvature="0"
         inkscape:label="#path4580"
         transform="matrix(3.0317309,-0.80249253,0.72233387,3.3681674,-2500.1079,-386.04565)" />
      <path
         style="opacity:0.5;fill:none;stroke:#72b28c;stroke-width:0.264583px;stroke-linecap:round;stroke-linejoin:round;stroke-opacity:1"
         d="m 1030.8604,450.23119 1.5368,-1.97111 0.6682,1.00226 -0.033,0.63476 0.4677,0.23386 2.3052,-0.86862 0.4677,-0.70158 1.2362,0.36749 0.3675,0.50113 0.6013,-0.20045 0.7016,-0.96885 1.7038,0.63476 0.4344,-0.93544 0.6681,-0.36749 0.6348,0.63476 1.4366,-0.70158 0.5679,0.63476 -0.6013,0.53454 -0.7016,0.10023 -0.4009,0.83521 0.9354,0.33409 0.8352,1.5368 -1.069,0.4009 0.1336,1.00227 -1.2695,-0.53454 -0.4009,1.90429 0.7684,0.7684 0.735,-0.23386 0.4677,0.93545 -0.033,0.53453 1.9711,1.60362 -0.4343,0.60136 -1.6036,-0.0334 -0.9021,0.7684 -1.7038,-0.66818 -2.2718,-2.77292 -0.4677,-0.20045 -1.3698,0.93544 -0.902,0.16705 -0.5012,-0.60136 h -0.9354 l 0.1002,-0.90204 -0.8018,-0.66817 -1.0022,0.83522 -1.1359,-2.37202 -0.8018,-0.63476 -0.033,-0.83522 0.7349,-0.7684 z"
         id="hamburg-border"
         class="west-german-province"
         inkscape:connector-curvature="0"
         inkscape:label="#path4582"
         transform="matrix(3.0317309,-0.80249253,0.72233387,3.3681674,-2500.1079,-386.04565)" />
      <path
         style="opacity:0.5;fill:none;stroke:#72b28c;stroke-width:0.264583px;stroke-linecap:round;stroke-linejoin:round;stroke-opacity:1"
         d="m 1016.0005,435.36879 3.4726,0.85045 2.5514,1.58278 1.4174,3.0238 0.3071,1.48829 2.0788,1.65364 0.2835,2.97656 3.3546,2.83483 1.3945,0.45205 v 0 0"
         id="upper-holstein-border"
         class="west-german-province"
         inkscape:connector-curvature="0"
         inkscape:label="#path4584"
         transform="matrix(3.0317309,-0.80249253,0.72233387,3.3681674,-2500.1079,-386.04565)" />
      <path
         style="opacity:0.5;fill:none;stroke:#72b28c;stroke-width:0.264583px;stroke-linecap:round;stroke-linejoin:round;stroke-opacity:1"
         d="m 1045.5603,458.48314 0.3948,0.55641 1.3938,0.0945 0.9685,1.08668 1.134,1.01582 2.693,1.48828"
         id="lower-holstein-border"
         class="west-german-province"
         inkscape:connector-curvature="0"
         inkscape:label="#path4586"
         transform="matrix(3.0317309,-0.80249253,0.72233387,3.3681674,-2500.1079,-386.04565)" />
      <path
         style="opacity:0.5;fill:none;stroke:#72b28c;stroke-width:0.264583px;stroke-linecap:round;stroke-linejoin:round;stroke-opacity:1"
         d="m 946.43667,469.77527 c 0.16705,0.0334 4.87767,1.70385 4.87767,1.70385 l 0.7684,-0.46773 1.50339,0.23387 0.26727,-0.43432 1.36976,-0.0668 0.53454,-0.46772 4.37654,-0.23386 1.36975,-1.10249 -1.00226,-0.70158 1.87089,-1.1693 1.77066,1.67043 0.10023,1.87089 0.83521,0.33409 1.80407,1.5702 h 2.33861 l 0.26727,0.80181 0.63477,-0.0334 0.13363,1.26953 0.90204,1.30294 -1.40317,-0.73499 -0.90204,0.40091 0.83522,0.8018 -0.80181,0.20046 -0.23386,1.00226 -1.03567,0.63476 0.53454,1.06908 2.40543,0.63477 -0.67038,0.50688 -0.23623,1.41741 -1.2048,-0.61421 -2.43322,0.47247 1.08668,1.91351 1.41741,0.47246 1.46466,-0.96856 1.67727,1.29929 1.58277,-0.56696 1.34654,0.68508 1.72452,-1.25204 1.9135,0.35435 2.24424,1.53553 0.85044,-0.18899 v -0.87407 l 2.22061,0.35435 1.13393,-0.87407 -1.65364,-1.6064 1.37016,-1.32291 -0.0709,-2.83483 -3.14193,-2.6222 -0.0709,-1.63003 3.56715,1.44104 1.03944,-0.4016 0.14174,-0.82683 2.07887,-0.68508 0.59058,1.11031 3.09468,-0.14174 1.34654,1.34654 -0.75595,1.41741 0.44885,0.87407 -1.01581,0.82682 1.5119,0.75595 1.27567,-0.49609 1.29929,1.22842 3.42541,0.0473 3.37296,-2.12365 0.8352,0.63477 0.7016,-0.13363 0.7684,0.86862 -1.5368,0.93544 0.6347,0.96886 -1.9711,1.90429 -2.60582,-0.0668 -1.00226,1.5034 2.63928,2.10474 -1.1693,0.3675 -0.46772,0.66817 -1.50339,-0.83522 0.70158,1.23613 -0.46772,0.86862 2.20495,0.40091 1.9043,1.13589 -0.8352,0.7684 1.3697,1.16931 -0.8352,0.66817 0.3007,1.43657 -0.8687,0.83522 0.2673,0.46772 2.5725,0.10023 0.2338,0.73499 -1.069,0.43431 0.5679,0.80181 1.2695,0.33409 0.3007,0.63476 -0.8018,1.30294 3.7418,0.83522 -1.3698,0.73499 0.033,0.90203 0.6014,0.63477 -2.4054,0.63477 0.1336,1.53679 -1.2027,1.36976 0.6348,0.63477 1.0356,0.10022 1.9377,0.33409 -0.5345,0.7684 2.372,0.80181 1.5368,-0.13364 0.167,1.1359 0.9689,1.03567 -0.1336,0.56795 -1.4366,-0.90204 0.167,0.66817 -0.735,0.13364 -0.067,0.86863 -1.1024,-0.0668 1.0356,2.00452 -0.8018,0.73499 0.3675,1.06908 -2.1716,-0.13363 v 0.86862 l -0.8686,0.0668 0.1671,0.66817 2.2718,1.60362 0.7015,0.20045 1.6037,0.96885 0.902,-0.16704 0.4677,-0.86863 -1.3029,0.50113 -0.5346,-1.87088 2.4055,-0.16705 1.1024,-0.73499 0.8019,0.60136 0.1002,1.23612 0.4677,-0.0334 0.1002,-1.23612 1.2362,0.10023 0.5679,0.80181 h 0.033 0.033 -0.1002 v 0.0334"
         id="ruhr-border"
         class="west-german-province"
         inkscape:connector-curvature="0"
         inkscape:label="#path4588"
         transform="matrix(3.0317309,-0.80249253,0.72233387,3.3681674,-2500.1079,-386.04565)" />
      <path
         style="opacity:0.5;fill:none;stroke:#72b28c;stroke-width:0.264583px;stroke-linecap:round;stroke-linejoin:round;stroke-opacity:1"
         d="m 908.46624,523.46087 1.72452,-0.63784 2.22061,0.28348 0.16536,1.2993 1.18118,-0.54334 0.77957,0.51971 0.0236,1.13393 1.25205,-0.44885 2.008,0.47247 -0.70871,-1.25204 0.44885,-0.44885 0.14174,-0.99219 -0.89769,-0.0709 0.73233,-0.59059 -0.14174,-0.75596 1.53552,-0.21261 0.18899,0.99219 1.25205,0.92132 1.41741,-0.33073 0.42522,-0.70871 -0.47247,-0.85045 1.67727,0.11812 -0.0709,-0.89769 2.22061,0.47247 1.74814,-0.94494 0.75595,1.22842 0.73233,-0.59058 1.41741,0.73232 1.25205,-0.44884 0.54334,-0.73233 0.4016,-0.0472 0.0473,1.01581 3.30729,0.4016 1.44104,-0.56696 0.0709,-1.22843 0.56696,-0.44884 2.22061,1.18117 3.66165,-0.44884 0.94494,0.75595 0.28348,-0.87407 1.74814,0.47247 1.03944,-0.63784 -0.61422,-1.34653 0.75596,0.51971 1.46465,-0.54334 1.01581,0.51972 -0.0945,-0.61421 0.70871,-1.01582 -0.73233,-0.87406 1.88988,-0.4016 0.99219,0.47247 0.51971,0.85044 -0.89769,0.87407 1.58278,0.82683 0.66146,1.22842 1.46465,0.33073 -0.8032,2.07887 1.81901,2.14974 -0.42522,0.87407 0.77958,0.49609 0.35435,-0.54334 1.27567,1.06306 1.74814,-1.03944 -0.77958,-1.9135 1.46466,-0.16537 3.66164,-1.65364 0.8032,1.08668 1.63002,0.35435 1.32292,-0.96856 1.51191,-0.16537 1.53552,-1.48828 2.17337,-0.96856 -0.75596,-0.82682 0.77958,-1.03944 -0.40159,-0.37797 1.44102,-0.21262 2.59859,1.11031 2.43323,0.0709 -0.66146,-0.8032 1.84263,-0.77958 -0.0236,-0.7087 0.8032,-0.33073 -0.56696,-0.77958 0.0236,-1.67727 h -3.63802 l -0.8032,-1.27567 2.17336,-1.67726 1.03944,0.59058 1.15755,-1.08668 1.55915,0.56697 2.45685,-0.0472 3.14192,1.29929 0.73233,-0.89769 -0.63783,-0.85045 0.0945,-0.87407 -0.56697,-1.1103 2.83482,0.0945 2.88207,0.8032 0.23624,1.03943 -0.75596,0.47248 v 0.42522 l 2.22061,1.08668 1.25205,-1.03944 0.96856,0.4961 0.0236,-0.70871 2.48042,-0.16536 2.5041,-1.86626 -0.5197,-0.82682 2.7403,0.3071 0.241,-0.64926 v 0"
         id="westphalian-border"
         class="west-german-province"
         inkscape:connector-curvature="0"
         inkscape:label="#path4590"
         transform="matrix(3.0317309,-0.80249253,0.72233387,3.3681674,-2500.1079,-386.04565)" />
      <path
         style="opacity:0.5;fill:none;stroke:#72b28c;stroke-width:0.264583px;stroke-linecap:round;stroke-linejoin:round;stroke-opacity:1"
         d="m 898.59543,547.30014 2.3219,1.20271 1.21942,-0.11693 0.4009,0.65147 2.6727,0.0668 0.50113,0.75169 1.30294,-0.58465 1.21942,0.35079 1.28623,-0.56794 1.03567,0.56794 2.00452,-0.43431 1.50339,0.53454 0.23386,-0.83522 1.40317,0.90204 h 1.87088 l 1.67044,2.03793 1.46998,-0.10023 0.20045,1.1693 1.5034,0.90204 1.13589,-0.33409 -0.36749,1.40317 1.06907,0.16704 -0.16704,0.83522 -1.00226,-0.30068 -0.33409,0.80181 0.80181,0.73499 -2.20497,0.50113 0.16704,0.63476 1.06908,0.3675 -0.33409,0.93544 1.77066,1.50339 1.30294,0.13364 -1.00226,1.80407 -2.33861,1.36976 -0.50113,-0.56795 -1.23612,0.66817 0.50113,1.03567"
         id="saar-border"
         class="west-german-province"
         inkscape:connector-curvature="0"
         inkscape:label="#path4592"
         transform="matrix(3.0317309,-0.80249253,0.72233387,3.3681674,-2500.1079,-386.04565)" />
      <path
         style="opacity:0.5;fill:none;stroke:#72b28c;stroke-width:0.264583px;stroke-linecap:round;stroke-linejoin:round;stroke-opacity:1"
         d="m 959.46942,526.6973 -0.9388,0.94182 0.80181,0.96886 -0.43431,0.43431 0.43431,1.03567 -1.57021,1.46998 -1.30294,-0.50113 -0.56795,-1.03567 -2.23838,0.70158 -0.50113,1.16931 0.66817,0.93544 -1.1693,0.26727 -0.23386,1.16931 1.46998,0.73499 -0.60135,0.60135 1.23612,0.40091 0.0334,1.20271 0.86862,0.56795 0.0668,1.46998 -1.06907,0.53454 -1.20272,-0.96885 -0.86862,0.26727 0.7684,1.00226 -1.30294,0.30068 -0.70158,-0.93545 -2.53906,0.23386 -1.30294,0.70159 1.10248,1.43657 -0.43431,1.60362 -0.66817,-1.03567 -1.57021,-0.63477 -0.56795,0.7684 -2.17157,0.66818 2.23839,2.3386 -0.0668,0.96886 2.3052,1.06907 7.11605,-0.26726 0.90204,0.50112 0.8018,-0.0668 2.47224,3.30746 0.23387,1.70384 -0.96886,0.56795 0.23387,0.80181 0.86862,0.60135 -0.46772,0.63477 0.7684,2.20497 1.5368,0.46772 0.0668,0.43432 -1.00226,0.60135 -3.64155,0.46772 0.43431,2.43884 0.83522,0.73499 v 0.70158 l -0.46772,0.83522 0.30068,1.9377 -0.43432,1.87089 1.67044,0.33409 -0.13364,0.7684 -0.53454,0.56795 -0.83521,-0.13364 -0.10023,0.66818 0.80181,0.13363 -0.46772,0.73499 -1.30294,0.33409 0.83522,1.60362 -3.20724,0.63476 -0.0334,1.06908 -1.36975,0.66817 c 0,0 -1.1359,2.63929 -1.26953,2.6727 -0.13364,0.0334 -1.87089,0.46772 -1.87089,0.46772 l -1.33635,2.10474"
         id="rhenish-border"
         class="west-german-province"
         inkscape:connector-curvature="0"
         inkscape:label="#path4594"
         transform="matrix(3.0317309,-0.80249253,0.72233387,3.3681674,-2500.1079,-386.04565)" />
      <path
         style="opacity:0.5;fill:none;stroke:#72b28c;stroke-width:0.264583px;stroke-linecap:round;stroke-linejoin:round;stroke-opacity:1"
         d="m 957.62858,563.38643 1.34473,0.21078 1.55915,2.55134 1.44104,0.63784 1.37016,-0.59059 -0.54334,-2.10249 3.28367,0.11811 0.0473,0.92132 -0.8977,0.51972 0.47247,1.67727 2.19699,1.46466 0.94494,-0.42523 -0.0236,0.99219 2.12612,0.56696 -0.35435,0.68509 -0.51972,0.11811 -0.56697,-0.66145 -1.32291,0.3071 0.28348,0.75595 -1.51191,0.94494 1.51191,0.73233 2.45684,-0.99219 1.08669,0.33073 -0.21262,-0.92131 1.06306,-0.96857 -0.13462,-0.22429 1.36976,0.43432 0.4009,0.73499 1.63703,-0.63477 0.73499,0.33409 1.00226,0.53454 -0.0334,-0.70159 -1.26953,-0.7684 0.0334,-0.8018 1.03567,0.50113 0.33409,-0.53454 -1.36976,-1.23612 2.00452,-0.90204 -0.33409,-1.33635 1.57021,0.13364 0.70159,-1.20271 -1.03567,-1.16931 1.33634,-0.20045 -1.60361,-0.96885 0.56794,-1.43658 -1.00226,0.26727 -0.53454,-0.66817 0.50114,-0.53454 -0.33409,-0.7684 0.36749,-3.44109 0.80181,-0.53454 -0.0334,-1.10249 h -1.13589 l 0.30068,-0.93544 0.73499,-0.16705 0.20045,-0.80181 3.70836,0.23386 0.53454,0.7684 -0.63476,0.40091 0.86862,0.10023 1.60362,-1.16931 4.94449,1.80407 0.53454,1.70384 3.40768,0.66818 v -1.57021 l 0.96886,-0.50113 -0.63477,-0.73499 0.70158,-0.53454 -0.73499,-1.06908 0.66818,-0.36749 0.86862,0.86862 1.10249,-0.10022 0.56795,0.60135 2.07138,0.33409 -0.36754,-1.20272 1.77064,-0.16704 1.637,-0.43431 -0.1002,-1.60362 0.8352,-0.56795 0.3675,-1.33634 1.5034,0.23386 1.4366,1.5368 2.6727,-0.0668 2.9066,-1.20271 0.3842,-0.40091 v 0 l 0.017,0.0334"
         id="hessian-border"
         class="west-german-province"
         inkscape:connector-curvature="0"
         inkscape:label="#path4596"
         transform="matrix(3.0317309,-0.80249253,0.72233387,3.3681674,-2500.1079,-386.04565)" />
      <path
         style="opacity:0.5;fill:none;stroke:#72b28c;stroke-width:0.264583px;stroke-linecap:round;stroke-linejoin:round;stroke-opacity:1"
         d="m 977.97448,569.13272 2.63928,1.13589 1.78737,-0.16704 0.88533,-1.26953 1.5535,-0.26727 0.31739,0.53454 c 0,0 1.20271,-0.0334 1.30293,0 0.10023,0.0334 0.60136,0.65147 0.60136,0.65147 l 1.03567,-0.35079 -0.55124,-0.73499 0.93544,-0.3508 -0.65147,-1.46998 -0.85192,0.98556 -0.81851,-0.60136 0.48442,-0.56795 -1.58691,-0.91873 0.75169,-0.11694 v -0.75169 l 2.52236,0.80181 1.38646,-0.3675 0.25057,0.78511 0.70158,-0.23386 1.10249,0.11693 -0.13364,1.08578 1.58692,0.7684 -0.0167,-1.05237 2.73951,0.4009 -1.40317,2.57247 1.1693,0.71829 0.38421,-1.00226 1.31964,0.25056 v 1.36976 l 1.21886,-0.78084 1.32291,-0.11812 0.70869,1.91351 -0.6614,0.3071 1.2048,1.84264 -2.40965,1.65364 1.15756,0.56697 0.92129,-1.15756 1.1103,0.16537 -0.4961,0.73233 0.756,0.51972 -1.1339,1.86625 3.3073,1.15755 1.3937,-0.63783 -0.4252,-0.73233 1.134,-0.47247 0.8976,1.70089 -0.5669,0.51972 0.4016,0.75595 0.4252,3.00019 -1.6064,-0.37798 -0.4417,1.4232 0.8686,0.73499 0.022,1.55071 -1.252,-0.25987 -0.189,2.8112 1.7245,0.82683 1.63,1.77176 -1.7717,0.92132 1.3937,0.42522 -0.2834,1.39379 0.9685,1.08668 1.9135,0.28348 -0.095,0.8032 1.2285,1.32292 1.0158,1.67727 -0.2126,0.8032 -0.9686,-0.0709 0.7559,0.87407 -0.4016,0.8977 -1.2048,0.28348 0.9922,0.63783 -1.3465,1.11031 -0.047,1.48828 0.8977,0.28348 -0.024,0.8032 0.8741,0.77958 -0.8032,0.49609 -1.8427,0.0709 0.945,-1.15755 -0.4961,-0.51971 -2.197,1.53552 -0.6615,-1.65364 -1.7009,-0.51972 -0.8504,1.08668 1.7009,1.91351 -1.1339,0.25985 0.5433,1.06306 c 0,0 -0.3544,1.46466 -0.4489,1.41741 -0.094,-0.0472 -1.063,0.0709 -1.063,0.0709 l -0.4489,-0.49609 -1.063,0.0709 0.024,0.70871 -1.2993,-0.0945 -1.2284,0.68508 -0.87411,-0.11811 -0.8032,-1.18118 -1.2048,0.37798 -1.15755,-0.4016 -0.0473,1.03943 -2.43323,0.87407 0.0945,0.99219 0.85045,0.54334 0.30711,1.65364 0.82682,0.63784 -0.66146,1.81901 0.68508,0.51972 -0.28348,1.6064 0.35435,1.34654 0.82683,0.89769 -0.85045,2.55134 -1.39379,1.32292 -0.61421,-0.0709 -0.30711,0.68509 0.63784,0.44884 -0.59059,2.17337 -1.08668,-0.23624 0.0709,0.44885 0.77958,0.11811 0.7087,1.72452 -0.96856,0.47247 -0.47247,-0.47247 -0.92132,0.33073 1.18117,1.51191 -0.3071,0.8032 0.54334,0.63783 -0.28348,0.82682 -1.46466,0.0236 -0.61421,0.61421 -0.4016,-1.39378 -1.72452,-0.61422 -1.32291,0.8032 -1.46466,-0.56696 -1.03944,-0.89769 -2.008,-0.23624 -0.63783,0.54334 -1.04025,-0.3064 -2.83973,0.39255"
         id="swabian-border"
         class="west-german-province"
         inkscape:connector-curvature="0"
         inkscape:label="#path4598"
         transform="matrix(3.0317309,-0.80249253,0.72233387,3.3681674,-2500.1079,-386.04565)" />
      <path
         style="opacity:0.5;fill:none;stroke:#000000;stroke-width:0.264583px;stroke-linecap:butt;stroke-linejoin:miter;stroke-opacity:1"
         d="m 895.1662,524.97277 -1.20479,0.56696"
         id="german-border-02"
         class="german-border"
         inkscape:connector-curvature="0"
         transform="matrix(3.0317309,-0.80249253,0.72233387,3.3681674,-2500.1079,-386.04565)" />
      <path
         style="opacity:0.5;fill:none;stroke:#ffffff;stroke-width:2.64583;stroke-linecap:round;stroke-linejoin:round;stroke-miterlimit:4;stroke-dasharray:none;stroke-opacity:1"
         d="m 947.80643,424.94081 v 1.06908 l 1.73725,1.23612 2.33861,-0.83521 -1.50339,-1.26954 z"
         id="german-border-03"
         class="german-border"
         inkscape:connector-curvature="0"
         transform="matrix(3.0317309,-0.80249253,0.72233387,3.3681674,-2500.1079,-386.04565)" />
      <path
         style="opacity:0.5;fill:none;stroke:#ffffff;stroke-width:2.64583;stroke-linecap:round;stroke-linejoin:round;stroke-miterlimit:4;stroke-dasharray:none;stroke-opacity:1"
         d="m 953.98704,425.10785 -0.46772,0.60136 0.7684,0.4009 0.56794,-0.26726 -0.30067,-0.93545 z"
         id="german-border-04"
         class="german-border"
         inkscape:connector-curvature="0"
         transform="matrix(3.0317309,-0.80249253,0.72233387,3.3681674,-2500.1079,-386.04565)" />
      <path
         style="opacity:0.5;fill:none;stroke:#ffffff;stroke-width:2.64583;stroke-linecap:round;stroke-linejoin:round;stroke-miterlimit:4;stroke-dasharray:none;stroke-opacity:1"
         d="m 961.9049,425.2749 v 0.7684 l 2.73951,0.63476 2.3052,-0.10022 -0.63477,-0.66818 -3.14041,-0.73499 z"
         id="german-border-05"
         class="german-border"
         inkscape:connector-curvature="0"
         transform="matrix(3.0317309,-0.80249253,0.72233387,3.3681674,-2500.1079,-386.04565)" />
      <path
         style="opacity:0.5;fill:none;stroke:#ffffff;stroke-width:2.64583;stroke-linecap:round;stroke-linejoin:round;stroke-miterlimit:4;stroke-dasharray:none;stroke-opacity:1"
         d="m 968.01869,426.87852 0.70158,-0.40091 1.06908,0.46772 0.23386,0.60136 z"
         id="german-border-06"
         class="german-border"
         inkscape:connector-curvature="0"
         transform="matrix(3.0317309,-0.80249253,0.72233387,3.3681674,-2500.1079,-386.04565)" />
      <path
         style="opacity:0.5;fill:none;stroke:#ffffff;stroke-width:2.64583;stroke-linecap:round;stroke-linejoin:round;stroke-miterlimit:4;stroke-dasharray:none;stroke-opacity:1"
         d="m 971.29274,426.74488 -0.53454,0.50113 0.0334,0.56795 0.7684,0.10022 0.46772,-0.36749 3.10701,0.7684 v -0.60136 l -2.03793,-0.80181 z"
         id="german-border-07"
         class="german-border"
         inkscape:connector-curvature="0"
         transform="matrix(3.0317309,-0.80249253,0.72233387,3.3681674,-2500.1079,-386.04565)" />
      <path
         style="opacity:0.5;fill:none;stroke:#ffffff;stroke-width:2.64583;stroke-linecap:round;stroke-linejoin:round;stroke-miterlimit:4;stroke-dasharray:none;stroke-opacity:1"
         d="m 986.27028,416.52904 0.0709,0.61421 0.81501,0.37798 0.53153,-0.81501 z"
         id="german-border-08"
         inkscape:connector-curvature="0"
         transform="matrix(3.0317309,-0.80249253,0.72233387,3.3681674,-2500.1079,-386.04565)" />
      <path
         style="opacity:0.5;fill:none;stroke:#ffffff;stroke-width:2.64583;stroke-linecap:round;stroke-linejoin:round;stroke-miterlimit:4;stroke-dasharray:none;stroke-opacity:1"
         d="m 977.4469,427.6439 -1.08668,0.4961 0.3071,0.51972 3.99237,0.33073 -0.54334,-0.68509 z"
         id="german-border-09"
         class="german-border"
         inkscape:connector-curvature="0"
         transform="matrix(3.0317309,-0.80249253,0.72233387,3.3681674,-2500.1079,-386.04565)" />
      <path
         style="opacity:0.5;fill:none;stroke:#ffffff;stroke-width:2.64583;stroke-linecap:round;stroke-linejoin:round;stroke-miterlimit:4;stroke-dasharray:none;stroke-opacity:1"
         d="m 981.55739,428.58885 0.4016,0.94494 0.59058,-0.4016 1.15756,0.42522 0.82682,0.70871 0.35435,-0.30711 -1.32291,-1.29929 z"
         id="german-border-10"
         class="german-border"
         inkscape:connector-curvature="0"
         transform="matrix(3.0317309,-0.80249253,0.72233387,3.3681674,-2500.1079,-386.04565)" />
      <path
         style="opacity:0.5;fill:none;stroke:#ffffff;stroke-width:2.64583;stroke-linecap:round;stroke-linejoin:round;stroke-miterlimit:4;stroke-dasharray:none;stroke-opacity:1"
         d="m 1008.063,393.88591 -3.3073,2.95294 -1.1458,1.84263 -0.2362,1.2048 -1.0631,2.22061 0.4489,0.88588 1.1339,-2.59859 0.1299,-0.82682 1.4175,-0.81501 1.1693,1.44103 0.8623,0.34255 1.8662,-0.62603 -1.1221,-0.6024 -0.7677,-0.0354 -1.2285,-1.1103 0.3898,-2.23242 1.3347,-0.50791 1.134,-0.0709 0.9449,-0.87407 -0.4961,-0.38979 z"
         id="german-border-11"
         class="german-border"
         inkscape:connector-curvature="0"
         transform="matrix(3.0317309,-0.80249253,0.72233387,3.3681674,-2500.1079,-386.04565)" />
      <path
         style="opacity:0.5;fill:none;stroke:#ffffff;stroke-width:2.64583;stroke-linecap:round;stroke-linejoin:round;stroke-miterlimit:4;stroke-dasharray:none;stroke-opacity:1"
         d="m 1015.9267,413.46493 -1.804,0.63476 -0.2506,0.85192 1.6036,0.93545 0.6682,-0.0167 1.3531,-0.80181 -0.735,-1.01897 z"
         id="german-border-12"
         class="german-border"
         inkscape:connector-curvature="0"
         transform="matrix(3.0317309,-0.80249253,0.72233387,3.3681674,-2500.1079,-386.04565)" />
      <path
         style="opacity:0.5;fill:none;stroke:#ffffff;stroke-width:2.64583;stroke-linecap:round;stroke-linejoin:round;stroke-miterlimit:4;stroke-dasharray:none;stroke-opacity:1"
         d="m 1008.4933,411.32677 -0.1336,0.3675 0.6514,1.13589 1.3865,0.45102 1.6871,-1.35305 -0.334,-0.56795 z"
         id="german-border-13"
         class="german-border"
         inkscape:connector-curvature="0"
         transform="matrix(3.0317309,-0.80249253,0.72233387,3.3681674,-2500.1079,-386.04565)" />
      <path
         style="opacity:0.5;fill:none;stroke:#ffffff;stroke-width:2.64583;stroke-linecap:round;stroke-linejoin:round;stroke-miterlimit:4;stroke-dasharray:none;stroke-opacity:1"
         d="m 1007.7917,407.73534 0.735,0.85192 1.3364,-0.45102 1.0356,0.33409 0.9689,-0.61806 z"
         id="german-border-14"
         class="german-border"
         inkscape:connector-curvature="0"
         transform="matrix(3.0317309,-0.80249253,0.72233387,3.3681674,-2500.1079,-386.04565)" />
      <path
         style="opacity:0.5;fill:none;stroke:#ffffff;stroke-width:2.64583;stroke-linecap:round;stroke-linejoin:round;stroke-miterlimit:4;stroke-dasharray:none;stroke-opacity:1"
         d="m 1005.854,403.55925 -0.4009,0.31738 -0.2171,0.81852 1.186,0.66817 0.1503,0.43431 2.7228,0.83522 1.186,-0.65147 -0.1169,-1.23612 -0.9521,-0.61806 -2.8899,-0.63477 z"
         id="german-border-15"
         class="german-border"
         inkscape:connector-curvature="0"
         transform="matrix(3.0317309,-0.80249253,0.72233387,3.3681674,-2500.1079,-386.04565)" />
      <path
         style="opacity:0.5;fill:none;stroke:#ffffff;stroke-width:2.64583;stroke-linecap:round;stroke-linejoin:round;stroke-miterlimit:4;stroke-dasharray:none;stroke-opacity:1"
         d="m 1002.9642,404.19401 -0.9355,0.735 0.735,1.97111 1.0691,0.53454 0.5512,-0.3675 -0.9354,-2.42213 0.7517,-0.3842 -0.2005,-0.26727 z"
         id="german-border-16"
         class="german-border"
         inkscape:connector-curvature="0"
         transform="matrix(3.0317309,-0.80249253,0.72233387,3.3681674,-2500.1079,-386.04565)" />
    </g>
  </g>
</svg>
